<?xml version="1.0" encoding="UTF-8"?>
<svg xmlns="http://www.w3.org/2000/svg" xmlns:xlink="http://www.w3.org/1999/xlink" width="20pt" height="20pt" viewBox="0 0 20 20" version="1.1">
<g id="surface1">
<path style=" stroke:none;fill-rule:nonzero;fill:rgb(0%,0%,0%);fill-opacity:1;" d="M 9.332031 8.433594 L 8.308594 8.09375 C 8.097656 8.023438 7.875 8.136719 7.804688 8.34375 L 7.46875 9.359375 C 8.152344 9.292969 8.832031 9.667969 9.117188 10.34375 L 9.585938 8.933594 C 9.652344 8.726562 9.539062 8.5 9.332031 8.433594 Z M 9.332031 8.433594 "/>
<path style=" stroke:none;fill-rule:nonzero;fill:rgb(0%,0%,0%);fill-opacity:1;" d="M 5.535156 6.625 C 5.535156 7.710938 4.652344 8.59375 3.5625 8.59375 C 2.472656 8.59375 1.589844 7.710938 1.589844 6.625 C 1.589844 5.535156 2.472656 4.652344 3.5625 4.652344 C 4.652344 4.652344 5.535156 5.535156 5.535156 6.625 Z M 5.535156 6.625 "/>
<path style=" stroke:none;fill-rule:nonzero;fill:rgb(0%,0%,0%);fill-opacity:1;" d="M 9.425781 14.746094 L 6.359375 13.632812 C 6.183594 13.570312 5.992188 13.554688 5.808594 13.597656 C 5.566406 13.652344 4.261719 13.945312 4.003906 14 L 4.050781 13.359375 L 2.136719 11.453125 C 2.445312 11.625 4.339844 12.691406 4.625 12.855469 C 4.847656 12.984375 5.128906 13.003906 5.378906 12.890625 L 7.960938 11.71875 C 8.375 11.53125 8.558594 11.046875 8.371094 10.632812 C 8.183594 10.21875 7.699219 10.035156 7.285156 10.222656 L 5.078125 11.226562 C 4.640625 10.980469 3.375 10.265625 2.941406 10.023438 L 4.265625 10.347656 C 4.253906 10.039062 4.136719 9.738281 3.929688 9.503906 C 3.691406 9.226562 3.351562 9.054688 2.984375 9.03125 L 1.722656 8.949219 C 1.359375 8.925781 0.996094 9.046875 0.722656 9.292969 C 0.449219 9.535156 0.28125 9.878906 0.261719 10.242188 L 0.00390625 14.894531 C -0.0195312 15.261719 0.109375 15.617188 0.351562 15.890625 C 0.597656 16.160156 0.9375 16.324219 1.304688 16.34375 C 1.976562 16.378906 2.644531 16.320312 3.300781 16.175781 C 3.84375 16.054688 4.679688 15.867188 5.957031 15.582031 L 8.753906 16.597656 C 9.265625 16.78125 9.828125 16.519531 10.015625 16.007812 C 10.199219 15.496094 9.9375 14.933594 9.425781 14.746094 Z M 9.425781 14.746094 "/>
<path style=" stroke:none;fill-rule:nonzero;fill:rgb(0%,0%,0%);fill-opacity:1;" d="M 18.125 5.347656 C 18.125 6.453125 17.226562 7.347656 16.121094 7.347656 C 15.015625 7.347656 14.117188 6.453125 14.117188 5.347656 C 14.117188 4.242188 15.015625 3.34375 16.121094 3.34375 C 17.226562 3.34375 18.125 4.242188 18.125 5.347656 Z M 18.125 5.347656 "/>
<path style=" stroke:none;fill-rule:nonzero;fill:rgb(0%,0%,0%);fill-opacity:1;" d="M 18.992188 14.644531 L 18.175781 14.644531 L 18.558594 14.515625 C 19.023438 14.363281 19.25 14.050781 19.242188 13.433594 C 19.261719 12.683594 19.265625 11.429688 19.273438 9.238281 C 19.273438 8.863281 19.125 8.503906 18.859375 8.238281 C 18.59375 7.976562 18.234375 7.828125 17.859375 7.832031 L 16.570312 7.839844 C 16.195312 7.84375 15.835938 7.996094 15.574219 8.261719 C 15.351562 8.492188 15.214844 8.792969 15.183594 9.109375 L 16.640625 8.808594 C 16.378906 8.9375 14.554688 9.828125 14.296875 9.953125 L 12.105469 8.800781 C 11.695312 8.582031 11.191406 8.742188 10.972656 9.152344 C 10.757812 9.558594 10.914062 10.066406 11.324219 10.28125 L 13.894531 11.636719 C 14.136719 11.761719 14.421875 11.761719 14.660156 11.640625 L 15.898438 11.039062 L 17.375 10.316406 L 15.230469 12.207031 L 15.253906 13.492188 L 13.355469 14.121094 C 12.746094 14.324219 12.378906 14.929688 12.484375 15.5625 C 12.585938 16.195312 13.125 16.65625 13.765625 16.65625 L 18.992188 16.65625 C 19.550781 16.65625 20 16.207031 20 15.648438 C 20 15.09375 19.550781 14.644531 18.992188 14.644531 Z M 18.992188 14.644531 "/>
<path style=" stroke:none;fill-rule:nonzero;fill:rgb(0%,0%,0%);fill-opacity:1;" d="M 11.386719 6.457031 C 11.316406 6.246094 11.09375 6.136719 10.886719 6.207031 L 9.859375 6.550781 C 9.652344 6.617188 9.542969 6.84375 9.609375 7.050781 L 10.230469 8.898438 C 10.246094 8.859375 10.261719 8.824219 10.28125 8.785156 C 10.601562 8.183594 11.242188 7.863281 11.882812 7.929688 Z M 11.386719 6.457031 "/>
</g>
</svg>
