<svg xmlns="http://www.w3.org/2000/svg" width="32" height="32" viewBox="0 0 32 32"><g transform="translate(0 -1020.362)"><path style="line-height:normal;text-indent:0;text-align:start;text-decoration-line:none;text-decoration-style:solid;text-decoration-color:#000;text-transform:none;white-space:normal;isolation:auto;mix-blend-mode:normal;solid-color:#000;solid-opacity:1" fill-rule="evenodd" d="m 15.999666,1024.3628 c -6.8973371,0 -12.499342,5.6022 -12.499342,12.4996 0,3.2651 1.3167307,6.3662 3.587711,8.6931 l -2.941245,2.9432 a 0.50002363,0.50003452 0 0 0 0.3514815,0.8535 l 2.4940686,0.01 a 0.50002363,0.50003452 0 0 0 0.3553812,-0.1465 l 1.9100994,-1.91 c 2.0130943,1.3022 4.3360713,2.0519 6.7398453,2.0565 2.402973,0 4.725651,-0.7496 6.739845,-2.0487 l 1.900299,1.9022 a 0.50002363,0.50003452 0 0 0 0.355482,0.1465 l 2.495968,-0.01 a 0.50002363,0.50003452 0 0 0 0.351482,-0.8535 l -2.943145,-2.9432 c 2.27478,-2.3251 3.59361,-5.4266 3.59941,-8.6931 0,-6.8974 -5.602105,-12.4996 -12.499341,-12.4996 z m 0,0.9999 c 6.356165,0 11.498294,5.1417 11.499394,11.4978 -0.01,3.1656 -1.314831,6.1885 -3.62091,8.3571 a 0.50002363,0.50003452 0 0 0 -0.012,0.7187 l 2.419773,2.4199 -1.085843,0 -2.001895,-2.0019 a 0.50002363,0.50003452 0 0 0 -0.638666,-0.057 c -1.925399,1.3399 -4.214378,2.0587 -6.560154,2.0604 -2.346777,0 -4.635956,-0.727 -6.5602548,-2.0702 a 0.50002363,0.50003452 0 0 0 -0.6385664,0.057 l -2.0135939,2.0117 -1.0839429,0 2.4178726,-2.4199 a 0.50002363,0.50003452 0 0 0 -0.01,-0.7187 c -2.3014787,-2.1701 -3.6079099,-5.1919 -3.6111097,-8.3552 l 0,0 c 0,-6.3561 5.143229,-11.4978 11.4993941,-11.4978 z" color="#000" enable-background="accumulate" font-family="sans-serif" font-weight="400" overflow="visible"/><path style="line-height:normal;text-indent:0;text-align:start;text-decoration-line:none;text-decoration-style:solid;text-decoration-color:#000;text-transform:none;white-space:normal;isolation:auto;mix-blend-mode:normal;solid-color:#000;solid-opacity:1" d="m 16.86092,1026.8998 c -2.362575,-0.2036 -4.797347,0.4272 -6.82584,1.9355 a 0.50002363,0.50003452 0 1 0 0.595668,0.8027 c 3.657408,-2.7195 8.759639,-2.2799 11.897874,1.0254 3.138234,3.3053 3.313225,8.4231 0.408178,11.9351 -2.905047,3.5121 -7.96548,4.2993 -11.800178,1.8359 -3.8346982,-2.4633 -5.2218252,-7.3931 -3.2361298,-11.4957 a 0.50009342,0.50010432 0 1 0 -0.9003525,-0.4356 c -2.202584,4.5508 -0.6561655,10.0407 3.5974103,12.7731 4.253676,2.7324 9.886379,1.8548 13.10871,-2.0409 3.22243,-3.8958 3.02804,-9.595 -0.453077,-13.2614 -1.740508,-1.8332 -4.029687,-2.8704 -6.392263,-3.0741 z" color="#000" enable-background="accumulate" font-family="sans-serif" font-weight="400" overflow="visible"/><path style="line-height:normal;text-indent:0;text-align:start;text-decoration-line:none;text-decoration-style:solid;text-decoration-color:#000;text-transform:none;white-space:normal;isolation:auto;mix-blend-mode:normal;solid-color:#000;solid-opacity:1" fill-rule="evenodd" d="m 15.991866,1030.3548 a 0.50002366,0.50003455 0 0 0 -0.492174,0.5078 l 0,5.9998 a 0.50002366,0.50003455 0 0 0 0.499974,0.5 l 4.749749,0 a 0.50002366,0.50003455 0 1 0 0,-1 l -4.249776,0 0,-5.4998 a 0.50002366,0.50003455 0 0 0 -0.507773,-0.5078 z" color="#000" enable-background="accumulate" font-family="sans-serif" font-weight="400" overflow="visible"/><path d="m 22.999197,1036.8618 c 0,0.2761 -0.223888,0.5 -0.499974,0.5 -0.276085,0 -0.499974,-0.2239 -0.499974,-0.5 0,-0.2761 0.223889,-0.5 0.499974,-0.5 0.276086,0 0.499974,0.2239 0.499974,0.5 z"/><path style="line-height:normal;text-indent:0;text-align:start;text-decoration-line:none;text-decoration-style:solid;text-decoration-color:#000;text-transform:none;white-space:normal;isolation:auto;mix-blend-mode:normal;solid-color:#000;solid-opacity:1" fill-rule="evenodd" d="m 26.180729,1026.2592 -1.999894,1.9999 0.707062,0.707 1.999895,-1.9999 z" color="#000" enable-background="accumulate" font-family="sans-serif" font-weight="400" overflow="visible"/><path style="line-height:normal;text-indent:0;text-align:start;text-decoration-line:none;text-decoration-style:solid;text-decoration-color:#000;text-transform:none;white-space:normal;isolation:auto;mix-blend-mode:normal;solid-color:#000;solid-opacity:1" d="m 26.641705,1023.3628 c -0.861055,0 -1.721009,0.3261 -2.374875,0.9805 -0.049,0.049 -0.09499,0.097 -0.140693,0.1484 a 0.50002366,0.50003455 0 0 0 0.02,0.6874 l 4.034888,4.037 a 0.50002366,0.50003455 0 0 0 0.675764,0.027 c 0.053,-0.044 0.102495,-0.089 0.152392,-0.1367 a 0.50002366,0.50003455 0 0 0 0.01,-0.01 c 1.307731,-1.3087 1.307731,-3.445 0,-4.7537 -0.653866,-0.6544 -1.515821,-0.9805 -2.376775,-0.9805 z m 0,0.9922 c 0.602768,0 1.206836,0.232 1.669812,0.6952 0.835956,0.8367 0.808557,2.0922 0.134693,3.0176 l -3.150134,-3.1524 c 0.412778,-0.3013 0.859255,-0.5604 1.345629,-0.5604 z" color="#000" enable-background="accumulate" font-family="sans-serif" font-weight="400" overflow="visible"/><path style="line-height:normal;text-indent:0;text-align:start;text-decoration-line:none;text-decoration-style:solid;text-decoration-color:#000;text-transform:none;white-space:normal;isolation:auto;mix-blend-mode:normal;solid-color:#000;solid-opacity:1" fill-rule="evenodd" d="m 5.8185019,1026.2592 -0.7069627,0.707 1.9998946,1.9999 0.7069627,-0.707 z" color="#000" enable-background="accumulate" font-family="sans-serif" font-weight="400" overflow="visible"/><path style="line-height:normal;text-indent:0;text-align:start;text-decoration-line:none;text-decoration-style:solid;text-decoration-color:#000;text-transform:none;white-space:normal;isolation:auto;mix-blend-mode:normal;solid-color:#000;solid-opacity:1" d="m 5.3576262,1023.3628 c -0.8609547,0 -1.7229092,0.3261 -2.3767748,0.9805 -1.3078311,1.3087 -1.3078311,3.445 0,4.7537 a 0.50002366,0.50003455 0 0 0 0.01,0.01 c 0.049997,0.048 0.1015946,0.092 0.1542918,0.1367 a 0.50002366,0.50003455 0 0 0 0.6756645,-0.027 l 4.0349874,-4.037 a 0.50002366,0.50003455 0 0 0 0.018999,-0.6874 c -0.045998,-0.051 -0.091995,-0.1 -0.1405926,-0.1484 -0.6539656,-0.6544 -1.5139203,-0.9805 -2.3748749,-0.9805 z m 0,0.9922 c 0.4862744,0 0.9327508,0.2591 1.3456291,0.5604 l -3.150234,3.1524 c -0.6737645,-0.9254 -0.7011631,-2.1809 0.1347929,-3.0176 0.4628756,-0.4632 1.0669437,-0.6952 1.669812,-0.6952 z" color="#000" enable-background="accumulate" font-family="sans-serif" font-weight="400" overflow="visible"/></g></svg>